<svg width="1488" height="1330" viewBox="0 0 1488 1330" fill="none" xmlns="http://www.w3.org/2000/svg">
<path d="M727.755 170.625C716.73 182.439 707.909 198.35 705.704 204.478C699.088 221.978 697.767 252.874 705.704 269.939C712.319 283.064 736.576 306.25 744.074 306.25C745.841 306.25 747.163 285.686 747.163 260.747C747.163 234.939 748.93 213.499 751.573 212.187C754.217 210.435 755.984 226.624 755.984 257.69C755.984 284.375 757.305 306.25 758.627 306.25C766.126 306.25 779.802 294.878 791.266 279.124C810.229 253.315 809.79 220.503 790.827 189.877C778.473 170.625 758.189 149.188 751.135 148.75C749.368 148.75 739.226 158.375 727.755 170.625Z" fill="#4FAF6F"/>
<path d="M855.493 228.794C853.777 223.662 881.938 178.901 891.942 166.785C886.938 176.763 877.791 218.103 889.798 218.103C901.805 218.103 908.379 230.22 915.527 237.347L853.349 282.251L879.078 237.347C871.929 236.634 857.208 233.926 855.493 228.794Z" fill="#FBC710"/>
<path d="M602.49 228.794C600.775 223.662 628.935 178.901 638.939 166.785C633.935 176.763 624.788 218.103 636.795 218.103C648.802 218.103 655.376 230.22 662.524 237.347L600.346 282.251L626.075 237.347C618.926 236.634 604.205 233.926 602.49 228.794Z" fill="#FBC710"/>
<path d="M730.871 568.75C678.353 533.75 650.635 554.167 643.341 568.75C634.588 570.208 616.207 574 612.706 577.5C608.329 581.875 494.541 778.75 472.659 791.875C455.153 802.375 462.447 854.584 468.282 879.375C500.376 904.167 582.946 965.125 656.471 1010.63C729.995 1056.13 792.141 1035.42 814.023 1019.38C860.706 998.959 964.574 948.5 1006.59 910C1048.6 871.5 1032.85 821.042 1019.72 800.625L875.294 568.75C870.918 562.917 856.038 554.75 831.529 568.75C800.894 586.25 796.518 612.5 730.871 568.75Z" fill="#FBC710"/>
<path d="M613.056 335.967C605.912 339.826 597.58 346.058 594.604 350.213C587.464 360.007 584.488 384.938 589.248 398.887C593.712 412.539 607.4 426.192 619.008 428.863L627.936 430.941V475.755V520.868L589.544 581.71C546.096 650.862 543.12 655.908 498.776 723.576C452.352 795.105 451.16 798.368 450.864 839.918C450.864 873.16 451.16 874.644 461.576 896.309C473.184 920.646 491.336 940.827 510.088 950.326C516.932 953.888 537.764 965.46 556.512 976.442C575.26 987.425 598.772 1000.78 608.592 1006.42C618.412 1012.06 631.804 1019.48 638.352 1023.33C685.968 1050.64 718.408 1060.43 760.368 1060.73C805.304 1060.73 822.864 1053.01 939.224 982.673C964.224 967.834 985.352 955.667 986.248 955.667C992.2 955.667 1021.96 932.219 1031.18 920.647C1050.23 896.309 1057.08 878.206 1058.56 849.417C1060.65 808.46 1055.29 795.105 1003.21 716.156C985.352 689.15 948.152 630.386 901.132 555.594L881.192 523.836V477.239L880.896 430.941L889.824 428.863C901.132 426.489 915.416 409.868 919.584 395.029C923.156 381.673 919.584 360.304 911.848 348.729C909.168 344.871 901.432 338.935 894.584 335.374C883.276 330.032 876.432 329.438 821.972 329.438H761.856V348.729V368.021H817.804C868.396 368.021 874.648 368.614 878.812 373.363C881.788 376.331 883.872 380.486 883.872 382.267C883.872 389.093 871.968 397.7 862.744 397.7C857.684 397.7 851.136 399.184 847.864 400.668C842.504 403.636 842.208 407.494 842.208 469.524V535.413L871.372 579.931C887.74 604.564 903.216 629.197 906.488 634.243C917.204 652.346 977.32 746.429 994.876 772.845C1018.09 807.567 1020.77 814.691 1020.77 840.513C1020.77 857.132 1018.98 865.74 1013.62 877.017C1002.02 901.65 993.092 908.476 903.216 959.824C875.54 975.848 844.588 993.955 834.472 1000.19C813.044 1013.84 796.08 1019.77 772.272 1022.15C733.88 1026.6 703.528 1017.1 647.28 984.157C632.696 975.254 611.272 963.382 600.26 957.446C567.524 939.938 528.536 915.895 515.444 904.917C490.148 883.843 480.028 850.011 489.256 818.254C491.932 808.755 501.456 790.653 510.384 777.592C519.312 764.237 526.752 752.96 526.752 752.07C526.752 751.176 536.572 735.747 548.776 717.345C560.68 698.943 579.724 669.559 590.736 651.751C601.748 633.944 618.412 607.827 627.64 593.877C637.16 579.931 649.66 559.451 655.612 548.768L666.624 529.177V469.524C666.624 413.43 666.328 409.275 660.672 403.636C657.4 400.371 650.852 397.7 645.792 397.7C637.16 397.7 624.96 389.093 624.96 382.564C624.96 380.783 626.448 376.925 627.936 373.66C630.912 368.318 634.78 368.021 688.944 368.021H746.976V348.729V329.438H686.564C629.72 329.438 625.556 329.735 613.056 335.967Z" fill="#507F5F"/>
<rect x="752.998" y="843.784" width="65.7238" height="5.00143" transform="rotate(-31.4226 752.998 843.784)" fill="#4FAF6F"/>
<rect x="752.949" y="901.163" width="58.1594" height="4.94973" transform="rotate(-90 752.949 901.163)" fill="#4FAF6F"/>
<rect x="808.014" y="931.309" width="65.7238" height="5.00143" transform="rotate(-31.4226 808.014 931.309)" fill="#4FAF6F"/>
<rect x="754.283" y="898.295" width="65.7238" height="5.00143" transform="rotate(30.9427 754.283 898.295)" fill="#4FAF6F"/>
<rect x="863.081" y="901.163" width="58.1594" height="4.94973" transform="rotate(-90 863.081 901.163)" fill="#4FAF6F"/>
<ellipse cx="809.566" cy="813.306" rx="10.8312" ry="10.8275" fill="#11351D"/>
<ellipse cx="863.722" cy="845.788" rx="10.8312" ry="10.8275" fill="#11351D"/>
<ellipse cx="863.722" cy="899.926" rx="10.8312" ry="10.8275" fill="#11351D"/>
<ellipse cx="809.566" cy="932.409" rx="10.8312" ry="10.8275" fill="#11351D"/>
<rect x="642.866" y="844.094" width="65.7238" height="5.00143" transform="rotate(-31.4226 642.866 844.094)" fill="#4FAF6F"/>
<rect x="697.882" y="931.619" width="65.7238" height="5.00143" transform="rotate(-31.4226 697.882 931.619)" fill="#4FAF6F"/>
<rect x="644.152" y="898.604" width="65.7238" height="5.00143" transform="rotate(30.9427 644.152 898.604)" fill="#4FAF6F"/>
<rect x="699.168" y="809.829" width="65.7238" height="5.00143" transform="rotate(30.9427 699.168 809.829)" fill="#4FAF6F"/>
<rect x="642.818" y="901.473" width="58.1594" height="4.94973" transform="rotate(-90 642.818 901.473)" fill="#4FAF6F"/>
<rect x="752.95" y="901.473" width="58.1594" height="4.94973" transform="rotate(-90 752.95 901.473)" fill="#4FAF6F"/>
<ellipse cx="753.59" cy="900.235" rx="10.8312" ry="10.8275" fill="#11351D"/>
<ellipse cx="645.278" cy="846.098" rx="10.8312" ry="10.8275" fill="#11351D"/>
<ellipse cx="645.278" cy="900.235" rx="10.8312" ry="10.8275" fill="#11351D"/>
<ellipse cx="699.434" cy="932.718" rx="10.8312" ry="10.8275" fill="#11351D"/>
<ellipse cx="753.59" cy="846.098" rx="10.8312" ry="10.8275" fill="#11351D"/>
<rect x="642.866" y="669.616" width="65.7238" height="5.00143" transform="rotate(-31.4226 642.866 669.616)" fill="#4FAF6F"/>
<rect x="697.882" y="757.141" width="65.7238" height="5.00143" transform="rotate(-31.4226 697.882 757.141)" fill="#4FAF6F"/>
<rect x="699.168" y="635.351" width="65.7238" height="5.00143" transform="rotate(30.9427 699.168 635.351)" fill="#4FAF6F"/>
<rect x="642.818" y="726.995" width="58.1594" height="4.94973" transform="rotate(-90 642.818 726.995)" fill="#4FAF6F"/>
<rect x="752.949" y="726.995" width="58.1594" height="4.94973" transform="rotate(-90 752.949 726.995)" fill="#4FAF6F"/>
<ellipse cx="699.434" cy="639.137" rx="10.8312" ry="10.8275" fill="#11351D"/>
<ellipse cx="753.59" cy="671.62" rx="10.8312" ry="10.8275" fill="#11351D"/>
<ellipse cx="645.278" cy="671.62" rx="10.8312" ry="10.8275" fill="#11351D"/>
<ellipse cx="645.278" cy="725.757" rx="10.8312" ry="10.8275" fill="#11351D"/>
<ellipse cx="699.434" cy="758.24" rx="10.8312" ry="10.8275" fill="#11351D"/>
<rect x="752.998" y="669.306" width="65.7238" height="5.00143" transform="rotate(-31.4226 752.998 669.306)" fill="#4FAF6F"/>
<rect x="808.014" y="756.832" width="65.7238" height="5.00143" transform="rotate(-31.4226 808.014 756.832)" fill="#4FAF6F"/>
<rect x="754.284" y="723.817" width="65.7238" height="5.00143" transform="rotate(30.9427 754.284 723.817)" fill="#4FAF6F"/>
<rect x="809.3" y="635.042" width="65.7238" height="5.00143" transform="rotate(30.9427 809.3 635.042)" fill="#4FAF6F"/>
<rect x="752.949" y="726.685" width="58.1594" height="4.94973" transform="rotate(-90 752.949 726.685)" fill="#4FAF6F"/>
<rect x="863.081" y="726.685" width="58.1594" height="4.94973" transform="rotate(-90 863.081 726.685)" fill="#4FAF6F"/>
<ellipse cx="809.566" cy="638.828" rx="10.8312" ry="10.8275" fill="#11351D"/>
<ellipse cx="863.722" cy="671.31" rx="10.8312" ry="10.8275" fill="#11351D"/>
<ellipse cx="755.41" cy="671.31" rx="10.8312" ry="10.8275" fill="#11351D"/>
<ellipse cx="755.41" cy="725.448" rx="10.8312" ry="10.8275" fill="#11351D"/>
<rect x="807.445" y="757.164" width="65.7238" height="5.00143" transform="rotate(-31.4226 807.445 757.164)" fill="#4FAF6F"/>
<rect x="862.461" y="844.689" width="65.7238" height="5.00143" transform="rotate(-31.4226 862.461 844.689)" fill="#4FAF6F"/>
<rect x="808.731" y="811.675" width="65.7238" height="5.00143" transform="rotate(30.9427 808.731 811.675)" fill="#4FAF6F"/>
<rect x="863.747" y="722.899" width="65.7238" height="5.00143" transform="rotate(30.9427 863.747 722.899)" fill="#4FAF6F"/>
<rect x="807.396" y="814.543" width="58.1594" height="4.94973" transform="rotate(-90 807.396 814.543)" fill="#4FAF6F"/>
<rect x="917.528" y="814.543" width="58.1594" height="4.94973" transform="rotate(-90 917.528 814.543)" fill="#4FAF6F"/>
<ellipse cx="864.013" cy="726.685" rx="10.8312" ry="10.8275" fill="#11351D"/>
<ellipse cx="918.169" cy="759.168" rx="10.8312" ry="10.8275" fill="#11351D"/>
<ellipse cx="918.169" cy="813.306" rx="10.8312" ry="10.8275" fill="#11351D"/>
<ellipse cx="809.857" cy="759.168" rx="10.8312" ry="10.8275" fill="#11351D"/>
<ellipse cx="809.857" cy="813.306" rx="10.8312" ry="10.8275" fill="#11351D"/>
<ellipse cx="864.013" cy="845.788" rx="10.8312" ry="10.8275" fill="#11351D"/>
<rect x="588.419" y="755.927" width="65.7238" height="5.00143" transform="rotate(-31.4226 588.419 755.927)" fill="#4FAF6F"/>
<rect x="643.435" y="843.452" width="65.7238" height="5.00143" transform="rotate(-31.4226 643.435 843.452)" fill="#4FAF6F"/>
<rect x="589.705" y="810.437" width="65.7238" height="5.00143" transform="rotate(30.9427 589.705 810.437)" fill="#4FAF6F"/>
<rect x="644.721" y="721.662" width="65.7238" height="5.00143" transform="rotate(30.9427 644.721 721.662)" fill="#4FAF6F"/>
<rect x="588.371" y="813.306" width="58.1594" height="4.94973" transform="rotate(-90 588.371 813.306)" fill="#4FAF6F"/>
<rect x="698.502" y="813.306" width="58.1594" height="4.94973" transform="rotate(-90 698.502 813.306)" fill="#4FAF6F"/>
<ellipse cx="644.987" cy="725.448" rx="10.8312" ry="10.8275" fill="#11351D"/>
<ellipse cx="699.143" cy="757.931" rx="10.8312" ry="10.8275" fill="#11351D"/>
<ellipse cx="699.143" cy="812.068" rx="10.8312" ry="10.8275" fill="#11351D"/>
<ellipse cx="590.831" cy="757.931" rx="10.8312" ry="10.8275" fill="#11351D"/>
<ellipse cx="590.831" cy="812.068" rx="10.8312" ry="10.8275" fill="#11351D"/>
<ellipse cx="644.987" cy="844.551" rx="10.8312" ry="10.8275" fill="#11351D"/>
<line x1="80.8143" y1="94.5358" x2="85.8143" y2="92.5358" stroke="white"/>
<circle cx="729.5" cy="526.5" r="18.5" fill="#FBC710"/>
<circle cx="761" cy="473" r="12" fill="#FBC710"/>
<circle cx="707" cy="446" r="12" fill="#FBC710"/>
<circle cx="718.5" cy="388.5" r="7.5" fill="#FBC710"/>
<circle cx="689" cy="492" r="12" fill="#FBC710"/>
<circle cx="801" cy="407" r="8" fill="#FBC710"/>
<circle cx="801" cy="545" r="19" fill="#FBC710"/>
<circle cx="814.5" cy="471.5" r="13.5" fill="#FBC710"/>
<circle cx="753" cy="415" r="8" fill="#FBC710"/>
</svg>
