<svg width="379" height="121" viewBox="0 0 379 121" fill="none" xmlns="http://www.w3.org/2000/svg">
<path d="M0 37.5213V74.8794L5.51579 75.8582C8.69154 76.5107 13.3716 76.6739 16.0459 76.3476C20.8931 75.8582 20.8931 75.8582 21.3946 63.4599C21.7289 52.856 22.3974 50.5721 25.9075 47.3094L29.7518 43.7204L32.0919 47.6357C33.2619 49.9196 38.7777 57.2607 44.2934 64.1124L54.155 76.6739H65.5209C71.7052 76.6739 76.8867 76.1845 76.8867 75.695C76.8867 75.2056 69.6995 65.7438 61.008 54.6505C52.3164 43.5573 45.1292 33.7691 45.1292 32.9534C45.1292 32.1378 52.4836 24.4704 61.3422 15.8242L77.7225 6.13928e-06H64.6851H51.6478L36.7719 15.0085L21.896 30.1801L21.7289 15.0085V6.13928e-06H10.8644H0V37.5213Z" fill="black"/>
<path d="M107.14 24.9598C87.7513 69.659 85.2441 75.695 85.2441 76.1845C85.2441 76.5107 90.0913 76.6739 95.7743 76.6739H106.472L109.48 70.1484L112.489 63.623H129.538H146.754L149.428 70.1484L152.102 76.6739H162.967C168.984 76.6739 173.831 76.3476 173.831 76.0213C173.831 75.5319 171.157 69.4959 167.814 62.481C164.638 55.4662 160.125 45.3518 157.952 39.9683C155.947 34.5848 152.269 26.1017 149.929 21.2077C147.589 16.3136 144.581 9.46189 143.243 6.03603L140.569 6.13928e-06H129.203H117.837L107.14 24.9598ZM139.232 47.6357C138.563 48.7776 118.673 49.5933 118.673 48.4514C118.673 47.3094 127.198 23.981 128.033 22.5128C129.203 20.5551 140.402 45.678 139.232 47.6357Z" fill="black"/>
<path d="M193.888 24.3072C193.888 55.4662 194.39 57.7501 203.75 66.8857C222.637 85.1569 256.233 81.0785 266.095 59.2183C268.602 53.5086 269.438 47.1463 270.106 26.1017L270.942 -1.09559e-05H260.913H250.885L250.383 25.4492L249.882 50.8984L244.366 55.6293C236.51 62.6442 227.317 62.3179 219.629 54.8136L213.946 49.267V24.6335V-1.09559e-05H203.917H193.888V24.3072Z" fill="black"/>
<path d="M297.518 38.3369V76.6739L306.377 76.0213C311.057 75.5319 315.57 75.2056 316.405 75.0425C317.074 75.0425 317.575 69.8222 317.575 63.623V52.2035H325.097C331.114 52.2035 332.953 52.856 334.457 55.7925C335.627 57.9132 339.471 63.4599 343.149 68.0277L349.667 76.6739H361.2C367.552 76.6739 372.733 76.1845 372.733 75.695C372.733 74.2268 366.382 65.5806 359.027 56.7713L352.676 49.267L358.526 45.678C366.215 40.9471 369.39 34.7479 369.39 23.981C369.39 13.3771 365.546 7.66739 355.35 3.09959C349.667 0.65255 344.152 6.13928e-06 323.091 6.13928e-06H297.518V38.3369ZM348.497 21.8602C350.67 25.1229 350.837 26.5912 349.333 29.3645C346.826 34.0954 340.976 35.8899 328.273 35.8899H317.575V26.9174V17.945H331.783C344.987 17.945 346.157 18.2712 348.497 21.8602Z" fill="black"/>
<path d="M3.34302 107.67V120.721H13.3717C21.2275 120.721 23.4004 120.231 23.4004 118.273C23.4004 116.479 21.5618 115.826 16.7146 115.826H10.0288V105.223C10.0288 95.7607 9.69453 94.6188 6.68592 94.6188C3.67731 94.6188 3.34302 95.7607 3.34302 107.67Z" fill="black"/>
<path d="M40.7834 106.691C37.6076 113.379 35.1005 119.252 35.1005 119.742C35.1005 121.862 41.9534 120.557 42.7891 118.273C43.4577 116.642 46.132 115.826 50.3107 115.826C54.6564 115.826 57.3308 116.642 57.8322 118.273C58.8351 120.72 65.1866 121.862 65.1866 119.415C65.1866 118.763 62.8465 112.89 59.8379 106.364C55.4922 96.5763 53.9879 94.6187 50.645 94.6187C47.3021 94.6187 45.6306 96.5763 40.7834 106.691ZM55.1579 109.627C55.1579 110.443 53.3193 110.932 50.9792 110.932C46.132 110.932 46.132 111.095 48.6392 104.896L50.4778 100.328L52.6507 104.407C53.9879 106.691 54.9907 108.975 55.1579 109.627Z" fill="black"/>
<path d="M80.2296 107.67V120.721H89.5897C94.6041 120.721 100.287 119.905 102.126 119.089C105.469 117.295 106.471 110.28 103.63 108.485C102.46 107.833 102.46 106.528 103.63 104.407C105.803 100.492 105.803 100.165 102.627 97.229C100.956 95.4345 96.9441 94.6188 90.0912 94.6188H80.2296V107.67ZM97.7798 102.776C97.7798 104.407 95.7741 105.386 92.4312 105.712C87.7511 106.201 86.9154 105.712 86.9154 102.776C86.9154 99.8391 87.7511 99.3497 92.4312 99.8391C95.7741 100.165 97.7798 101.144 97.7798 102.776ZM96.777 110.769C100.287 112.89 97.4456 115.826 91.7626 115.826C87.2497 115.826 85.244 113.053 88.0854 110.443C89.5897 108.812 93.9355 109.138 96.777 110.769Z" fill="black"/>
<path d="M122.517 98.2078C117.503 103.754 116.5 108.485 119.342 113.869C122.183 119.415 125.025 120.721 132.713 120.721C145.751 120.721 151.935 107.343 142.909 98.6972C137.56 93.3137 127.365 93.1506 122.517 98.2078ZM137.895 102.123C141.07 105.386 140.569 112.401 136.892 114.684C132.546 117.295 125.526 114.684 124.356 109.954C122.35 102.123 132.045 96.4133 137.895 102.123Z" fill="black"/>
<path d="M162.131 107.67C162.131 118.11 162.632 120.721 164.638 120.721C165.975 120.721 167.145 119.252 167.145 117.621C167.145 112.401 172.494 111.911 176.672 116.479C178.678 118.763 182.021 120.721 184.027 120.721C187.537 120.721 187.537 120.557 184.863 116.642C182.355 112.89 182.355 112.237 184.695 109.954C186.033 108.648 187.203 105.712 187.203 103.591C187.203 97.0658 183.024 94.6188 171.992 94.6188H162.131V107.67ZM179.681 103.591C179.681 106.038 178.344 107.017 174.834 107.343C169.318 107.996 166.309 105.712 167.814 101.96C169.318 97.8815 179.681 99.3497 179.681 103.591Z" fill="black"/>
<path d="M204.92 105.549C202.413 111.585 199.905 117.458 199.404 118.6C198.902 119.905 199.905 120.721 202.078 120.721C204.084 120.721 206.09 119.579 206.591 118.273C207.26 116.642 209.934 115.826 214.781 115.826C219.628 115.826 222.303 116.642 222.971 118.273C223.473 119.579 225.144 120.721 226.649 120.721C229.991 120.721 229.156 116.968 223.139 103.918C219.294 95.9239 218.124 94.6188 214.28 94.6188C210.268 94.6188 209.098 95.9239 204.92 105.549ZM218.96 109.627C218.96 110.443 217.121 110.932 214.781 110.932C210.268 110.932 209.6 109.301 212.441 104.081C214.28 100.655 214.447 100.655 216.62 104.57C217.79 106.691 218.793 108.975 218.96 109.627Z" fill="black"/>
<path d="M237.346 96.9027C237.346 98.3709 239.352 99.5129 242.026 99.8391C246.372 100.329 246.539 100.818 247.04 110.443C247.542 119.415 248.043 120.721 250.718 120.721C253.726 120.721 254.061 119.579 254.061 110.932C254.061 101.634 254.228 101.144 258.239 101.144C261.248 101.144 262.418 100.329 262.418 97.8815C262.418 94.9451 261.248 94.6188 249.882 94.6188C240.188 94.6188 237.346 95.1082 237.346 96.9027Z" fill="black"/>
<path d="M276.625 98.6971C265.259 109.627 279.132 125.615 295.011 119.742C302.198 116.968 303.201 101.47 296.348 96.5764C291.501 93.1505 281.138 94.1293 276.625 98.6971ZM292.838 102.286C298.688 107.343 294.844 115.826 286.654 115.826C279.968 115.826 276.792 106.854 281.807 102.123C285.149 98.6971 288.994 98.8603 292.838 102.286Z" fill="black"/>
<path d="M315.904 107.67C315.904 119.579 316.239 120.721 319.247 120.721C321.42 120.721 322.59 119.579 322.59 117.458C322.59 115.174 323.76 114.195 326.434 114.195C328.44 114.195 331.114 115.663 332.285 117.458C333.455 119.252 335.962 120.721 337.8 120.721C341.31 120.721 341.31 120.557 338.469 116.479C335.795 112.401 335.795 111.911 338.302 110.606C341.812 108.648 341.812 100.492 338.302 97.229C336.63 95.4345 332.619 94.6188 325.766 94.6188H315.904V107.67ZM333.956 103.918C334.457 107.18 333.789 107.67 328.607 107.67C323.259 107.67 322.59 107.18 322.59 103.428C322.59 99.676 323.092 99.3497 328.106 99.8391C332.117 100.165 333.622 101.144 333.956 103.918Z" fill="black"/>
<path d="M352.509 97.3921C353.345 99.0235 356.019 102.776 358.359 105.875C360.699 108.975 362.705 113.706 362.705 116.153C362.705 119.089 363.54 120.721 365.212 120.721C366.883 120.721 367.719 119.089 367.719 116.153C367.719 113.543 369.892 108.485 372.399 105.059C379.921 94.7819 380.088 94.6188 375.408 94.6188C372.399 94.6188 370.393 96.087 368.388 99.8391L365.713 104.896L362.37 99.8391C360.197 96.2501 357.69 94.6188 355.016 94.6188C351.506 94.6188 351.172 95.1082 352.509 97.3921Z" fill="black"/>
</svg>
