<svg width="703" height="311" viewBox="0 0 703 311" fill="none" xmlns="http://www.w3.org/2000/svg">
<path d="M171.557 37.7536C158.926 47.8166 158.51 63.154 170.585 70.8574C172.32 71.9678 173.986 72.87 174.263 72.87C174.541 72.87 174.819 68.0814 174.819 62.1824C174.819 56.2834 174.957 50.7314 175.166 49.8292C175.86 46.7062 176.276 35.4634 175.79 35.1858C175.513 34.9776 173.569 36.1574 171.557 37.7536Z" fill="#226238"/>
<path d="M180.444 70.1164C193.075 60.0534 193.491 44.716 181.415 37.0126C179.68 35.9022 178.015 35 177.737 35C177.46 35 177.182 39.7886 177.182 45.6876C177.182 51.5866 177.043 57.1386 176.835 58.0408C176.141 61.1638 175.725 72.4066 176.21 72.6842C176.488 72.8924 178.431 71.7126 180.444 70.1164Z" fill="#4D6D58"/>
<path d="M142.964 78.5608C141.298 79.463 139.355 80.9204 138.661 81.892C136.996 84.1822 136.302 90.0118 137.412 93.2736C138.453 96.466 141.645 99.6584 144.352 100.283L146.434 100.769V111.248V121.797L137.481 136.024C127.349 152.194 126.655 153.374 116.314 169.197C105.488 185.923 105.21 186.686 105.141 196.402C105.141 204.175 105.21 204.522 107.639 209.588C110.346 215.279 114.579 219.998 118.952 222.219C120.548 223.052 125.406 225.758 129.778 228.326C134.15 230.894 139.633 234.017 141.923 235.335C144.213 236.654 147.336 238.389 148.863 239.291C159.967 245.676 167.532 247.966 177.317 248.036C187.796 248.036 191.891 246.231 219.026 229.783C224.856 226.313 229.783 223.468 229.992 223.468C231.38 223.468 238.32 217.985 240.471 215.279C244.913 209.588 246.509 205.355 246.856 198.623C247.342 189.046 246.092 185.923 233.947 167.462C229.783 161.147 221.108 147.406 210.143 129.917L205.493 122.491V111.595L205.424 100.769L207.506 100.283C210.143 99.7278 213.474 95.8414 214.446 92.3714C215.279 89.2484 214.446 84.2516 212.642 81.545C212.017 80.6428 210.213 79.2548 208.616 78.422C205.979 77.1728 204.383 77.034 191.683 77.034H177.664V81.545V86.056H190.711C202.509 86.056 203.967 86.1948 204.938 87.3052C205.632 87.9992 206.118 88.9708 206.118 89.3872C206.118 90.9834 203.342 92.996 201.191 92.996C200.011 92.996 198.484 93.343 197.721 93.69C196.471 94.384 196.402 95.2862 196.402 109.791V125.198L203.203 135.608C207.02 141.368 210.629 147.128 211.392 148.308C213.891 152.541 227.91 174.541 232.004 180.718C237.417 188.837 238.042 190.503 238.042 196.541C238.042 200.427 237.626 202.44 236.376 205.077C233.67 210.837 231.588 212.433 210.629 224.44C204.175 228.187 196.957 232.421 194.598 233.878C189.601 237.07 185.645 238.458 180.093 239.014C171.14 240.055 164.062 237.834 150.945 230.13C147.544 228.048 142.548 225.272 139.98 223.884C132.346 219.79 123.254 214.168 120.201 211.601C114.302 206.673 111.942 198.762 114.094 191.336C114.718 189.115 116.939 184.882 119.021 181.828C121.103 178.705 122.838 176.068 122.838 175.86C122.838 175.651 125.128 172.043 127.974 167.74C130.75 163.437 135.191 156.566 137.759 152.402C140.327 148.238 144.213 142.131 146.365 138.869C148.585 135.608 151.5 130.819 152.888 128.321L155.456 123.74V109.791C155.456 96.6742 155.387 95.7026 154.068 94.384C153.305 93.6206 151.778 92.996 150.598 92.996C148.585 92.996 145.74 90.9834 145.74 89.4566C145.74 89.0402 146.087 88.138 146.434 87.3746C147.128 86.1254 148.03 86.056 160.661 86.056H174.194V81.545V77.034H160.106C146.85 77.034 145.879 77.1034 142.964 78.5608Z" fill="#11351D"/>
<path d="M164.131 94.6616C162.743 95.7026 162.951 97.7152 164.617 98.7562C165.45 99.3114 166.074 99.242 166.838 98.6174C169.336 96.5354 166.768 92.7184 164.131 94.6616Z" fill="#11351D"/>
<path d="M185.159 94.4534C182.73 95.8414 184.118 99.242 187.172 99.242C189.323 99.242 190.225 95.9802 188.421 94.5922C186.894 93.5512 186.686 93.4818 185.159 94.4534Z" fill="#11351D"/>
<path d="M171.834 100.63C170.099 102.504 168.711 105.028 168.364 106C167.323 108.776 167.115 113.677 168.364 116.384C169.405 118.466 173.222 122.144 174.402 122.144C174.68 122.144 174.888 118.882 174.888 114.926C174.888 110.832 175.166 107.431 175.582 107.223C175.998 106.945 176.276 109.513 176.276 114.441C176.276 118.674 176.484 122.144 176.692 122.144C177.872 122.144 180.024 120.34 181.828 117.841C184.812 113.747 184.743 108.542 181.759 103.684C179.815 100.63 176.623 97.2294 175.513 97.16C175.235 97.16 173.639 98.6868 171.834 100.63Z" fill="#11351D"/>
<path d="M170.793 130.888C168.434 133.387 165.241 136.996 163.715 138.939L161.008 142.409L163.506 145.671C167.462 150.598 174.402 157.538 175.374 157.538C176.068 157.538 176.276 154.137 176.276 141.923C176.276 133.317 175.998 126.308 175.651 126.308C175.304 126.308 173.153 128.39 170.793 130.888Z" fill="#11351D"/>
<path d="M182.483 153.65C184.842 151.151 188.035 147.542 189.561 145.599L192.268 142.129L189.77 138.867C185.814 133.94 178.874 127 177.902 127C177.208 127 177 130.401 177 142.615C177 151.221 177.278 158.23 177.625 158.23C177.972 158.23 180.123 156.148 182.483 153.65Z" fill="#4D6D58"/>
<path d="M150.876 141.229C149.835 142.825 149.835 143.103 150.876 144.699C152.125 146.642 152.819 146.781 154.831 145.74C157.538 144.283 155.942 139.494 152.749 139.494C152.333 139.494 151.5 140.257 150.876 141.229Z" fill="#11351D"/>
<path d="M196.888 140.674C196.055 141.507 196.402 144.144 197.443 145.046C198.623 146.018 200.982 145.393 201.538 143.936C202.44 141.507 198.692 138.869 196.888 140.674Z" fill="#11351D"/>
<path d="M147.891 155.178C144.352 159.273 143.172 163.021 144.283 167.115C145.254 170.793 146.712 173.084 149.279 174.957L151.292 176.345V170.932C151.292 167.948 151.5 162.465 151.778 158.718C152.055 154.137 151.986 151.986 151.431 151.986C151.014 151.986 149.418 153.443 147.891 155.178Z" fill="#11351D"/>
<path d="M156.045 173.167C159.584 169.072 160.764 165.325 159.654 161.23C158.682 157.552 157.225 155.262 154.657 153.388L152.644 152V157.413C152.644 160.397 152.436 165.88 152.159 169.628C151.881 174.208 151.95 176.359 152.506 176.359C152.922 176.359 154.518 174.902 156.045 173.167Z" fill="#4D6D58"/>
<path d="M199.178 164.131C199.178 177.872 199.317 178.219 203.897 173.639C209.241 168.295 209.241 161.147 203.897 155.109C199.317 149.973 199.178 150.251 199.178 164.131Z" fill="#4D6D58"/>
<path d="M198.727 164.144C198.727 150.403 198.588 150.056 194.008 154.636C188.664 159.98 188.664 167.128 194.008 173.166C198.588 178.302 198.727 178.024 198.727 164.144Z" fill="#11351D"/>
<path d="M163.298 167.74C157.885 176.276 156.081 179.607 156.705 180.024C157.052 180.232 159.273 183.702 161.702 187.727L166.144 195.014H175.86H185.645L190.156 187.588C192.654 183.494 194.736 179.954 194.875 179.607C195.083 179.121 190.295 170.655 186.547 164.964L184.951 162.396H175.79H166.699L163.298 167.74ZM182.453 168.711C187.588 172.39 189.393 178.636 186.686 183.841C181.759 193.557 169.475 193.765 165.103 184.257C163.437 180.648 163.437 176.207 165.103 172.945C167.462 168.295 170.238 166.699 175.998 166.629C178.913 166.56 180.093 166.976 182.453 168.711Z" fill="#11351D"/>
<path d="M134.22 168.434C131.791 170.169 133.179 173.778 136.093 173.361C137.481 173.222 137.759 172.806 137.759 170.724C137.759 168.85 137.481 168.226 136.371 168.087C135.608 168.017 134.636 168.156 134.22 168.434Z" fill="#11351D"/>
<path d="M213.891 168.781C211.878 170.793 213.752 173.778 216.667 173.361C219.582 172.945 218.888 167.948 215.903 167.948C215.279 167.948 214.377 168.295 213.891 168.781Z" fill="#11351D"/>
<path d="M131.444 183.285C130.472 184.882 128.321 188.49 126.655 191.266L123.601 196.402L127.696 203.203C129.986 206.881 132.276 210.421 132.762 211.045C133.456 212.017 135.399 212.295 143.45 212.503L153.235 212.78L158.093 204.869L162.951 196.888L157.954 188.699L153.027 180.509L143.172 180.44H133.248L131.444 183.285ZM146.018 186.061C151.431 190.295 153.027 198.553 149.557 204.383C148.1 206.951 144.907 209.588 143.311 209.588C143.103 209.588 142.964 203.967 142.964 197.096C142.964 190.225 143.242 184.604 143.589 184.604C143.866 184.604 144.977 185.229 146.018 186.061Z" fill="#11351D"/>
<path d="M197.165 182.453C196.333 183.563 195.708 184.673 195.708 184.951C195.708 185.229 194.112 188.005 192.238 191.197L188.768 196.957L193.279 204.522L197.79 212.156L205.146 212.572C218.471 213.405 217.361 213.683 220.623 208.547C222.219 206.118 223.468 203.897 223.468 203.62C223.468 203.342 224.37 201.676 225.55 199.803L227.563 196.471L222.982 188.49L218.332 180.44H208.478H198.553L197.165 182.453ZM211.739 187.449C213.058 188.976 214.446 191.128 214.932 192.099C216.25 195.014 216.042 200.288 214.446 203.273C213.127 205.91 209.449 209.588 208.131 209.588C207.784 209.588 207.506 207.02 207.506 203.828C207.506 195.708 208.339 184.604 208.894 184.604C209.172 184.604 210.49 185.853 211.739 187.449Z" fill="#11351D"/>
<path d="M161.494 206.396L156.775 214.377L160.592 220.276C162.674 223.537 164.894 227.146 165.519 228.326L166.629 230.477L175.721 230.269L184.812 230.061L189.601 222.427C192.238 218.263 194.32 214.377 194.181 213.752C194.042 213.197 192.099 209.519 189.809 205.632L185.645 198.553L175.929 198.484H166.213L161.494 206.396Z" fill="#11351D"/>
<path d="M149.696 219.72C149.418 219.998 149.21 220.97 149.21 221.802C149.21 222.982 149.696 223.537 151.014 223.884C153.166 224.44 154.276 223.468 153.929 221.317C153.79 220.137 153.235 219.582 151.986 219.443C151.014 219.304 149.973 219.443 149.696 219.72Z" fill="#11351D"/>
<path d="M196.68 221.108C195.986 223.884 199.386 225.411 201.26 223.121C202.648 221.455 201.468 219.304 199.178 219.304C197.512 219.304 197.027 219.651 196.68 221.108Z" fill="#11351D"/>
<path d="M203.558 185.856C193.775 193.061 193.452 204.043 202.805 209.559C204.149 210.354 205.439 211 205.654 211C205.869 211 206.084 207.571 206.084 203.347C206.084 199.124 206.192 195.148 206.353 194.502C206.891 192.266 207.213 184.216 206.837 184.017C206.622 183.868 205.117 184.713 203.558 185.856Z" fill="#226238"/>
<path d="M210.442 209.144C220.225 201.939 220.548 190.957 211.195 185.441C209.851 184.646 208.561 184 208.346 184C208.131 184 207.916 187.429 207.916 191.653C207.5 196 207.661 199.854 207.5 200.5C206.962 202.736 206.787 210.784 207.163 210.983C207.378 211.132 208.883 210.287 210.442 209.144Z" fill="#4D6D58"/>
<path d="M138.558 185.856C128.775 193.061 128.452 204.043 137.805 209.559C139.149 210.354 140.439 211 140.654 211C140.869 211 141.084 207.571 141.084 203.347C141.084 199.124 141.192 195.148 141.353 194.502C141.891 192.266 142.213 184.216 141.837 184.017C141.622 183.868 140.117 184.713 138.558 185.856Z" fill="#226238"/>
<path d="M145.442 209.144C155.225 201.939 155.548 190.957 146.195 185.441C144.851 184.646 143.561 184 143.346 184C143.131 184 142.916 187.429 142.916 191.653C142.916 195.876 142.808 199.852 142.647 200.498C142.109 202.734 141.787 210.784 142.163 210.983C142.378 211.132 143.883 210.287 145.442 209.144Z" fill="#4D6D58"/>
<path d="M169.08 204.539C163.96 207.967 163.594 217.888 168.349 222.037C175.663 228.532 187 223.661 187 214.1C187 203.637 177.674 198.586 169.08 204.539Z" fill="#4D6D58"/>
<path d="M199.5 53.5C199.1 52.3 205.667 41.8333 208 39C206.833 41.3333 204.7 51 207.5 51C210.3 51 211.833 53.8333 213.5 55.5L199 66L205 55.5C203.333 55.3333 199.9 54.7 199.5 53.5Z" fill="#FBC710"/>
<path d="M140.5 53.5C140.1 52.3 146.667 41.8333 149 39C147.833 41.3333 145.7 51 148.5 51C151.3 51 152.833 53.8333 154.5 55.5L140 66L146 55.5C144.333 55.3333 140.9 54.7 140.5 53.5Z" fill="#FBC710"/>
<path d="M324 127.521V164.879L329.516 165.858C332.692 166.511 337.372 166.674 340.046 166.348C344.893 165.858 344.893 165.858 345.395 153.46C345.729 142.856 346.397 140.572 349.907 137.309L353.752 133.72L356.092 137.636C357.262 139.92 362.778 147.261 368.293 154.112L378.155 166.674H389.521C395.705 166.674 400.887 166.184 400.887 165.695C400.887 165.206 393.699 155.744 385.008 144.651C376.316 133.557 369.129 123.769 369.129 122.953C369.129 122.138 376.484 114.47 385.342 105.824L401.722 90H388.685H375.648L360.772 105.009L345.896 120.18L345.729 105.009V90H334.864H324V127.521Z" fill="black"/>
<path d="M431.14 114.96C411.751 159.659 409.244 165.695 409.244 166.184C409.244 166.511 414.091 166.674 419.774 166.674H430.472L433.48 160.148L436.489 153.623H453.538H470.754L473.428 160.148L476.102 166.674H486.967C492.984 166.674 497.831 166.348 497.831 166.021C497.831 165.532 495.157 159.496 491.814 152.481C488.638 145.466 484.125 135.352 481.952 129.968C479.947 124.585 476.269 116.102 473.929 111.208C471.589 106.314 468.581 99.4619 467.243 96.036L464.569 90H453.203H441.837L431.14 114.96ZM463.232 137.636C462.563 138.778 442.673 139.593 442.673 138.451C442.673 137.309 451.198 113.981 452.033 112.513C453.203 110.555 464.402 135.678 463.232 137.636Z" fill="black"/>
<path d="M517.888 114.307C517.888 145.466 518.39 147.75 527.75 156.886C546.637 175.157 580.233 171.079 590.095 149.218C592.602 143.509 593.438 137.146 594.106 116.102L594.942 90H584.913H574.885L574.383 115.449L573.882 140.898L568.366 145.629C560.51 152.644 551.317 152.318 543.629 144.814L537.946 139.267V114.634V90H527.917H517.888V114.307Z" fill="black"/>
<path d="M621.518 128.337V166.674L630.377 166.021C635.057 165.532 639.57 165.206 640.405 165.043C641.074 165.043 641.575 159.822 641.575 153.623V142.203H649.097C655.114 142.203 656.953 142.856 658.457 145.792C659.627 147.913 663.471 153.46 667.149 158.028L673.667 166.674H685.2C691.552 166.674 696.733 166.184 696.733 165.695C696.733 164.227 690.382 155.581 683.027 146.771L676.676 139.267L682.526 135.678C690.215 130.947 693.39 124.748 693.39 113.981C693.39 103.377 689.546 97.6674 679.35 93.0996C673.667 90.6525 668.152 90 647.091 90H621.518V128.337ZM672.497 111.86C674.67 115.123 674.837 116.591 673.333 119.364C670.826 124.095 664.976 125.89 652.273 125.89H641.575V116.917V107.945H655.783C668.987 107.945 670.157 108.271 672.497 111.86Z" fill="black"/>
<path d="M327.343 197.67V210.721H337.372C345.228 210.721 347.4 210.231 347.4 208.273C347.4 206.479 345.562 205.826 340.715 205.826H334.029V195.223C334.029 185.761 333.695 184.619 330.686 184.619C327.677 184.619 327.343 185.761 327.343 197.67Z" fill="black"/>
<path d="M364.783 196.691C361.608 203.379 359.1 209.252 359.1 209.742C359.1 211.862 365.953 210.557 366.789 208.273C367.458 206.642 370.132 205.826 374.311 205.826C378.656 205.826 381.331 206.642 381.832 208.273C382.835 210.72 389.187 211.862 389.187 209.415C389.187 208.763 386.847 202.89 383.838 196.364C379.492 186.576 377.988 184.619 374.645 184.619C371.302 184.619 369.631 186.576 364.783 196.691ZM379.158 199.627C379.158 200.443 377.319 200.932 374.979 200.932C370.132 200.932 370.132 201.095 372.639 194.896L374.478 190.328L376.651 194.407C377.988 196.691 378.991 198.975 379.158 199.627Z" fill="black"/>
<path d="M404.23 197.67V210.721H413.59C418.604 210.721 424.287 209.905 426.126 209.089C429.469 207.295 430.471 200.28 427.63 198.485C426.46 197.833 426.46 196.528 427.63 194.407C429.803 190.492 429.803 190.165 426.627 187.229C424.956 185.434 420.944 184.619 414.091 184.619H404.23V197.67ZM421.78 192.776C421.78 194.407 419.774 195.386 416.431 195.712C411.751 196.201 410.915 195.712 410.915 192.776C410.915 189.839 411.751 189.35 416.431 189.839C419.774 190.165 421.78 191.144 421.78 192.776ZM420.777 200.769C424.287 202.89 421.446 205.826 415.763 205.826C411.25 205.826 409.244 203.053 412.085 200.443C413.59 198.812 417.936 199.138 420.777 200.769Z" fill="black"/>
<path d="M446.517 188.208C441.503 193.754 440.5 198.485 443.342 203.869C446.183 209.415 449.025 210.721 456.713 210.721C469.751 210.721 475.935 197.343 466.909 188.697C461.56 183.314 451.365 183.151 446.517 188.208ZM461.895 192.123C465.07 195.386 464.569 202.401 460.892 204.684C456.546 207.295 449.526 204.684 448.356 199.954C446.35 192.123 456.045 186.413 461.895 192.123Z" fill="black"/>
<path d="M486.131 197.67C486.131 208.11 486.632 210.721 488.638 210.721C489.975 210.721 491.145 209.252 491.145 207.621C491.145 202.401 496.494 201.911 500.672 206.479C502.678 208.763 506.021 210.721 508.027 210.721C511.537 210.721 511.537 210.557 508.863 206.642C506.355 202.89 506.355 202.237 508.695 199.954C510.033 198.648 511.203 195.712 511.203 193.591C511.203 187.066 507.024 184.619 495.992 184.619H486.131V197.67ZM503.681 193.591C503.681 196.038 502.344 197.017 498.834 197.343C493.318 197.996 490.309 195.712 491.814 191.96C493.318 187.882 503.681 189.35 503.681 193.591Z" fill="black"/>
<path d="M528.92 195.549C526.413 201.585 523.905 207.458 523.404 208.6C522.902 209.905 523.905 210.721 526.078 210.721C528.084 210.721 530.09 209.579 530.591 208.273C531.26 206.642 533.934 205.826 538.781 205.826C543.628 205.826 546.303 206.642 546.971 208.273C547.473 209.579 549.144 210.721 550.649 210.721C553.991 210.721 553.156 206.968 547.139 193.918C543.294 185.924 542.124 184.619 538.28 184.619C534.268 184.619 533.098 185.924 528.92 195.549ZM542.96 199.627C542.96 200.443 541.121 200.932 538.781 200.932C534.268 200.932 533.6 199.301 536.441 194.081C538.28 190.655 538.447 190.655 540.62 194.57C541.79 196.691 542.793 198.975 542.96 199.627Z" fill="black"/>
<path d="M561.346 186.903C561.346 188.371 563.352 189.513 566.026 189.839C570.372 190.329 570.539 190.818 571.04 200.443C571.542 209.415 572.043 210.721 574.718 210.721C577.726 210.721 578.061 209.579 578.061 200.932C578.061 191.634 578.228 191.144 582.239 191.144C585.248 191.144 586.418 190.329 586.418 187.882C586.418 184.945 585.248 184.619 573.882 184.619C564.188 184.619 561.346 185.108 561.346 186.903Z" fill="black"/>
<path d="M600.625 188.697C589.259 199.627 603.132 215.615 619.011 209.742C626.198 206.968 627.201 191.47 620.348 186.576C615.501 183.151 605.138 184.129 600.625 188.697ZM616.838 192.286C622.688 197.343 618.844 205.826 610.654 205.826C603.968 205.826 600.792 196.854 605.807 192.123C609.149 188.697 612.994 188.86 616.838 192.286Z" fill="black"/>
<path d="M639.904 197.67C639.904 209.579 640.239 210.721 643.247 210.721C645.42 210.721 646.59 209.579 646.59 207.458C646.59 205.174 647.76 204.195 650.434 204.195C652.44 204.195 655.114 205.663 656.285 207.458C657.455 209.252 659.962 210.721 661.8 210.721C665.31 210.721 665.31 210.557 662.469 206.479C659.795 202.401 659.795 201.911 662.302 200.606C665.812 198.648 665.812 190.492 662.302 187.229C660.63 185.434 656.619 184.619 649.766 184.619H639.904V197.67ZM657.956 193.918C658.457 197.18 657.789 197.67 652.607 197.67C647.259 197.67 646.59 197.18 646.59 193.428C646.59 189.676 647.092 189.35 652.106 189.839C656.117 190.165 657.622 191.144 657.956 193.918Z" fill="black"/>
<path d="M676.509 187.392C677.345 189.023 680.019 192.776 682.359 195.875C684.699 198.975 686.705 203.706 686.705 206.153C686.705 209.089 687.54 210.721 689.212 210.721C690.883 210.721 691.719 209.089 691.719 206.153C691.719 203.543 693.892 198.485 696.399 195.059C703.921 184.782 704.088 184.619 699.408 184.619C696.399 184.619 694.393 186.087 692.388 189.839L689.713 194.896L686.37 189.839C684.197 186.25 681.69 184.619 679.016 184.619C675.506 184.619 675.172 185.108 676.509 187.392Z" fill="black"/>
</svg>
