<svg width="598" height="214" viewBox="0 0 598 214" fill="none" xmlns="http://www.w3.org/2000/svg">
<path d="M66.5568 2.7536C53.926 12.8166 53.5096 28.154 65.5852 35.8574C67.3202 36.9678 68.9858 37.87 69.2634 37.87C69.541 37.87 69.8186 33.0814 69.8186 27.1824C69.8186 21.2834 69.9574 15.7314 70.1656 14.8292C70.8596 11.7062 71.276 0.463399 70.7902 0.185799C70.5126 -0.0224006 68.5694 1.1574 66.5568 2.7536Z" fill="#226238"/>
<path d="M75.4439 35.1164C88.0747 25.0534 88.4911 9.71601 76.4155 2.01261C74.6805 0.902215 73.0149 1.52588e-05 72.7373 1.52588e-05C72.4597 1.52588e-05 72.1821 4.78861 72.1821 10.6876C72.1821 16.5866 72.0433 22.1386 71.8351 23.0408C71.1411 26.1638 70.7247 37.4066 71.2105 37.6842C71.4881 37.8924 73.4313 36.7126 75.4439 35.1164Z" fill="#4D6D58"/>
<path d="M37.964 43.5608C36.2984 44.463 34.3552 45.9204 33.6612 46.892C31.9956 49.1822 31.3016 55.0118 32.412 58.2736C33.453 61.466 36.6454 64.6584 39.352 65.283L41.434 65.7688V76.2482V86.797L32.4814 101.024C22.349 117.194 21.655 118.374 11.3144 134.197C0.487991 150.923 0.210391 151.686 0.140991 161.402C0.140991 169.175 0.210391 169.522 2.63939 174.588C5.34599 180.279 9.57939 184.998 13.9516 187.219C15.5478 188.052 20.4058 190.758 24.778 193.326C29.1502 195.894 34.6328 199.017 36.923 200.335C39.2132 201.654 42.3362 203.389 43.863 204.291C54.967 210.676 62.5316 212.966 72.317 213.036C82.7964 213.036 86.891 211.231 114.026 194.783C119.856 191.313 124.783 188.468 124.992 188.468C126.38 188.468 133.32 182.985 135.471 180.279C139.913 174.588 141.509 170.355 141.856 163.623C142.342 154.046 141.092 150.923 128.947 132.462C124.783 126.147 116.108 112.406 105.143 94.9168L100.493 87.491V76.5952L100.424 65.7688L102.506 65.283C105.143 64.7278 108.474 60.8414 109.446 57.3714C110.279 54.2484 109.446 49.2516 107.642 46.545C107.017 45.6428 105.213 44.2548 103.616 43.422C100.979 42.1728 99.383 42.034 86.6828 42.034H72.664V46.545V51.056H85.7112C97.5092 51.056 98.9666 51.1948 99.9382 52.3052C100.632 52.9992 101.118 53.9708 101.118 54.3872C101.118 55.9834 98.342 57.996 96.1906 57.996C95.0108 57.996 93.484 58.343 92.7206 58.69C91.4714 59.384 91.402 60.2862 91.402 74.7908V90.1976L98.2032 100.608C102.02 106.368 105.629 112.128 106.392 113.308C108.891 117.541 122.91 139.541 127.004 145.718C132.417 153.837 133.042 155.503 133.042 161.541C133.042 165.427 132.626 167.44 131.376 170.077C128.67 175.837 126.588 177.433 105.629 189.44C99.1748 193.187 91.9572 197.421 89.5976 198.878C84.6008 202.07 80.645 203.458 75.093 204.014C66.1404 205.055 59.0616 202.834 45.945 195.13C42.5444 193.048 37.5476 190.272 34.9798 188.884C27.3458 184.79 18.2544 179.168 15.2008 176.601C9.30179 171.673 6.94219 163.762 9.09359 156.336C9.71819 154.115 11.939 149.882 14.021 146.828C16.103 143.705 17.838 141.068 17.838 140.86C17.838 140.651 20.1282 137.043 22.9736 132.74C25.7496 128.437 30.1912 121.566 32.759 117.402C35.3268 113.238 39.2132 107.131 41.3646 103.869C43.5854 100.608 46.5002 95.819 47.8882 93.3206L50.456 88.7402V74.7908C50.456 61.6742 50.3866 60.7026 49.068 59.384C48.3046 58.6206 46.7778 57.996 45.598 57.996C43.5854 57.996 40.74 55.9834 40.74 54.4566C40.74 54.0402 41.087 53.138 41.434 52.3746C42.128 51.1254 43.0302 51.056 55.661 51.056H69.194V46.545V42.034H55.1058C41.8504 42.034 40.8788 42.1034 37.964 43.5608Z" fill="#11351D"/>
<path d="M59.131 59.6616C57.743 60.7026 57.9512 62.7152 59.6168 63.7562C60.4496 64.3114 61.0742 64.242 61.8376 63.6174C64.336 61.5354 61.7682 57.7184 59.131 59.6616Z" fill="#11351D"/>
<path d="M80.1592 59.4534C77.7302 60.8414 79.1182 64.242 82.1718 64.242C84.3232 64.242 85.2254 60.9802 83.421 59.5922C81.8942 58.5512 81.686 58.4818 80.1592 59.4534Z" fill="#11351D"/>
<path d="M66.8344 65.63C65.0994 67.5038 63.7114 70.0284 63.3644 71C62.3234 73.776 62.1152 78.6772 63.3644 81.3838C64.4054 83.4658 68.2224 87.144 69.4022 87.144C69.6798 87.144 69.888 83.8822 69.888 79.9264C69.888 75.8318 70.1656 72.4312 70.582 72.223C70.9984 71.9454 71.276 74.5132 71.276 79.4406C71.276 83.674 71.4842 87.144 71.6924 87.144C72.8722 87.144 75.0236 85.3396 76.828 82.8412C79.8122 78.7466 79.7428 73.5416 76.7586 68.6836C74.8154 65.63 71.623 62.2294 70.5126 62.16C70.235 62.16 68.6388 63.6868 66.8344 65.63Z" fill="#11351D"/>
<path d="M65.7935 95.8884C63.4339 98.3868 60.2415 101.996 58.7147 103.939L56.0081 107.409L58.5065 110.671C62.4623 115.598 69.4023 122.538 70.3739 122.538C71.0679 122.538 71.2761 119.137 71.2761 106.923C71.2761 98.3174 70.9985 91.308 70.6515 91.308C70.3045 91.308 68.1531 93.39 65.7935 95.8884Z" fill="#11351D"/>
<path d="M77.4825 118.65C79.8421 116.151 83.0345 112.542 84.5613 110.599L87.2679 107.129L84.7695 103.867C80.8137 98.94 73.8737 92 72.9021 92C72.2081 92 71.9999 95.4006 71.9999 107.615C71.9999 116.221 72.2775 123.23 72.6245 123.23C72.9715 123.23 75.1229 121.148 77.4825 118.65Z" fill="#4D6D58"/>
<path d="M45.8756 106.229C44.8346 107.825 44.8346 108.103 45.8756 109.699C47.1248 111.642 47.8188 111.781 49.8314 110.74C52.538 109.283 50.9418 104.494 47.7494 104.494C47.333 104.494 46.5002 105.257 45.8756 106.229Z" fill="#11351D"/>
<path d="M91.8877 105.674C91.0549 106.507 91.4019 109.144 92.4429 110.046C93.6227 111.018 95.9823 110.393 96.5375 108.936C97.4397 106.507 93.6921 103.869 91.8877 105.674Z" fill="#11351D"/>
<path d="M42.8914 120.178C39.352 124.273 38.1722 128.021 39.2826 132.115C40.2542 135.793 41.7116 138.084 44.2794 139.957L46.292 141.345V135.932C46.292 132.948 46.5002 127.465 46.7778 123.718C47.0554 119.137 46.986 116.986 46.4308 116.986C46.0144 116.986 44.4182 118.443 42.8914 120.178Z" fill="#11351D"/>
<path d="M51.0449 138.167C54.5843 134.072 55.7641 130.325 54.6537 126.23C53.6821 122.552 52.2247 120.262 49.6569 118.388L47.6443 117V122.413C47.6443 125.397 47.4361 130.88 47.1585 134.628C46.8809 139.208 46.9503 141.359 47.5055 141.359C47.9219 141.359 49.5181 139.902 51.0449 138.167Z" fill="#4D6D58"/>
<path d="M94.178 129.131C94.178 142.872 94.3168 143.219 98.8972 138.639C104.241 133.295 104.241 126.147 98.8972 120.109C94.3168 114.973 94.178 115.251 94.178 129.131Z" fill="#4D6D58"/>
<path d="M93.7271 129.144C93.7271 115.403 93.5883 115.056 89.0079 119.636C83.6641 124.98 83.6641 132.128 89.0079 138.166C93.5883 143.302 93.7271 143.024 93.7271 129.144Z" fill="#11351D"/>
<path d="M58.2982 132.74C52.885 141.276 51.0806 144.607 51.7052 145.024C52.0522 145.232 54.273 148.702 56.702 152.727L61.1436 160.014H70.8596H80.645L85.156 152.588C87.6544 148.494 89.7364 144.954 89.8752 144.607C90.0834 144.121 85.2948 135.655 81.5472 129.964L79.951 127.396H70.7902H61.6988L58.2982 132.74ZM77.4526 133.711C82.5882 137.39 84.3926 143.636 81.686 148.841C76.7586 158.557 64.4748 158.765 60.1026 149.257C58.437 145.648 58.437 141.207 60.1026 137.945C62.4622 133.295 65.2382 131.699 70.9984 131.629C73.9132 131.56 75.093 131.976 77.4526 133.711Z" fill="#11351D"/>
<path d="M29.2196 133.434C26.7906 135.169 28.1786 138.778 31.0934 138.361C32.4814 138.222 32.759 137.806 32.759 135.724C32.759 133.85 32.4814 133.226 31.371 133.087C30.6076 133.017 29.636 133.156 29.2196 133.434Z" fill="#11351D"/>
<path d="M108.891 133.781C106.878 135.793 108.752 138.778 111.667 138.361C114.582 137.945 113.888 132.948 110.903 132.948C110.279 132.948 109.377 133.295 108.891 133.781Z" fill="#11351D"/>
<path d="M26.4436 148.285C25.472 149.882 23.3206 153.49 21.655 156.266L18.6014 161.402L22.696 168.203C24.9862 171.881 27.2764 175.421 27.7622 176.045C28.4562 177.017 30.3994 177.295 38.4498 177.503L48.2352 177.78L53.0932 169.869L57.9512 161.888L52.9544 153.699L48.027 145.509L38.1722 145.44H28.248L26.4436 148.285ZM41.0176 151.061C46.4308 155.295 48.027 163.553 44.557 169.383C43.0996 171.951 39.9072 174.588 38.311 174.588C38.1028 174.588 37.964 168.967 37.964 162.096C37.964 155.225 38.2416 149.604 38.5886 149.604C38.8662 149.604 39.9766 150.229 41.0176 151.061Z" fill="#11351D"/>
<path d="M92.1653 147.453C91.3325 148.563 90.7079 149.673 90.7079 149.951C90.7079 150.229 89.1117 153.005 87.2379 156.197L83.7679 161.957L88.2789 169.522L92.7899 177.156L100.146 177.572C113.471 178.405 112.361 178.683 115.623 173.547C117.219 171.118 118.468 168.897 118.468 168.62C118.468 168.342 119.37 166.676 120.55 164.803L122.563 161.471L117.982 153.49L113.332 145.44H103.478H93.5533L92.1653 147.453ZM106.739 152.449C108.058 153.976 109.446 156.128 109.932 157.099C111.25 160.014 111.042 165.288 109.446 168.273C108.127 170.91 104.449 174.588 103.131 174.588C102.784 174.588 102.506 172.02 102.506 168.828C102.506 160.708 103.339 149.604 103.894 149.604C104.172 149.604 105.49 150.853 106.739 152.449Z" fill="#11351D"/>
<path d="M56.4939 171.396L51.7747 179.377L55.5917 185.276C57.6737 188.537 59.8945 192.146 60.5191 193.326L61.6295 195.477L70.7209 195.269L79.8123 195.061L84.6009 187.427C87.2381 183.263 89.3201 179.377 89.1813 178.752C89.0425 178.197 87.0993 174.519 84.8091 170.632L80.6451 163.553L70.9291 163.484H61.2131L56.4939 171.396Z" fill="#11351D"/>
<path d="M44.6958 184.72C44.4182 184.998 44.21 185.97 44.21 186.802C44.21 187.982 44.6958 188.537 46.0144 188.884C48.1658 189.44 49.2762 188.468 48.9292 186.317C48.7904 185.137 48.2352 184.582 46.986 184.443C46.0144 184.304 44.9734 184.443 44.6958 184.72Z" fill="#11351D"/>
<path d="M91.6796 186.108C90.9856 188.884 94.3862 190.411 96.26 188.121C97.648 186.455 96.4682 184.304 94.178 184.304C92.5124 184.304 92.0266 184.651 91.6796 186.108Z" fill="#11351D"/>
<path d="M98.558 150.856C88.7749 158.061 88.4524 169.043 97.8055 174.559C99.1493 175.354 100.439 176 100.654 176C100.869 176 101.084 172.571 101.084 168.347C101.084 164.124 101.192 160.148 101.353 159.502C101.891 157.266 102.213 149.216 101.837 149.017C101.622 148.868 100.117 149.713 98.558 150.856Z" fill="#226238"/>
<path d="M105.442 174.144C115.225 166.939 115.548 155.957 106.195 150.441C104.851 149.646 103.561 149 103.346 149C103.131 149 102.916 152.429 102.916 156.653C102.5 161 102.661 164.854 102.5 165.5C101.962 167.736 101.787 175.784 102.163 175.983C102.378 176.132 103.883 175.287 105.442 174.144Z" fill="#4D6D58"/>
<path d="M33.558 150.856C23.7749 158.061 23.4524 169.043 32.8055 174.559C34.1493 175.354 35.4394 176 35.6544 176C35.8694 176 36.0844 172.571 36.0844 168.347C36.0844 164.124 36.1919 160.148 36.3532 159.502C36.8907 157.266 37.2132 149.216 36.837 149.017C36.622 148.868 35.1169 149.713 33.558 150.856Z" fill="#226238"/>
<path d="M40.442 174.144C50.2251 166.939 50.5476 155.957 41.1945 150.441C39.8507 149.646 38.5606 149 38.3456 149C38.1306 149 37.9156 152.429 37.9156 156.653C37.9156 160.876 37.8081 164.852 37.6468 165.498C37.1093 167.734 36.7868 175.784 37.163 175.983C37.378 176.132 38.8831 175.287 40.442 174.144Z" fill="#4D6D58"/>
<path d="M64.08 169.539C58.96 172.967 58.5943 182.888 63.3486 187.037C70.6629 193.532 82 188.661 82 179.1C82 168.637 72.6743 163.586 64.08 169.539Z" fill="#4D6D58"/>
<path d="M219 92.5213V129.879L224.516 130.858C227.692 131.511 232.372 131.674 235.046 131.348C239.893 130.858 239.893 130.858 240.395 118.46C240.729 107.856 241.397 105.572 244.907 102.309L248.752 98.7204L251.092 102.636C252.262 104.92 257.778 112.261 263.293 119.112L273.155 131.674H284.521C290.705 131.674 295.887 131.184 295.887 130.695C295.887 130.206 288.699 120.744 280.008 109.651C271.316 98.5573 264.129 88.7691 264.129 87.9534C264.129 87.1378 271.484 79.4704 280.342 70.8242L296.722 55H283.685H270.648L255.772 70.0085L240.896 85.1801L240.729 70.0085V55H229.864H219V92.5213Z" fill="black"/>
<path d="M326.14 79.9598C306.751 124.659 304.244 130.695 304.244 131.184C304.244 131.511 309.091 131.674 314.774 131.674H325.472L328.48 125.148L331.489 118.623H348.538H365.754L368.428 125.148L371.102 131.674H381.967C387.984 131.674 392.831 131.348 392.831 131.021C392.831 130.532 390.157 124.496 386.814 117.481C383.638 110.466 379.125 100.352 376.952 94.9683C374.947 89.5848 371.269 81.1017 368.929 76.2077C366.589 71.3136 363.581 64.4619 362.243 61.036L359.569 55H348.203H336.837L326.14 79.9598ZM358.232 102.636C357.563 103.778 337.673 104.593 337.673 103.451C337.673 102.309 346.198 78.981 347.033 77.5128C348.203 75.5551 359.402 100.678 358.232 102.636Z" fill="black"/>
<path d="M412.888 79.3072C412.888 110.466 413.39 112.75 422.75 121.886C441.637 140.157 475.233 136.079 485.095 114.218C487.602 108.509 488.438 102.146 489.106 81.1017L489.942 55H479.913H469.885L469.383 80.4492L468.882 105.898L463.366 110.629C455.51 117.644 446.317 117.318 438.629 109.814L432.946 104.267V79.6335V55H422.917H412.888V79.3072Z" fill="black"/>
<path d="M516.518 93.3369V131.674L525.377 131.021C530.057 130.532 534.57 130.206 535.405 130.043C536.074 130.043 536.575 124.822 536.575 118.623V107.203H544.097C550.114 107.203 551.953 107.856 553.457 110.792C554.627 112.913 558.471 118.46 562.149 123.028L568.667 131.674H580.2C586.552 131.674 591.733 131.184 591.733 130.695C591.733 129.227 585.382 120.581 578.027 111.771L571.676 104.267L577.526 100.678C585.215 95.9471 588.39 89.7479 588.39 78.981C588.39 68.3771 584.546 62.6674 574.35 58.0996C568.667 55.6525 563.152 55 542.091 55H516.518V93.3369ZM567.497 76.8602C569.67 80.1229 569.837 81.5912 568.333 84.3645C565.826 89.0954 559.976 90.8899 547.273 90.8899H536.575V81.9174V72.945H550.783C563.987 72.945 565.157 73.2712 567.497 76.8602Z" fill="black"/>
<path d="M222.343 162.67V175.721H232.372C240.228 175.721 242.4 175.231 242.4 173.273C242.4 171.479 240.562 170.826 235.715 170.826H229.029V160.223C229.029 150.761 228.695 149.619 225.686 149.619C222.677 149.619 222.343 150.761 222.343 162.67Z" fill="black"/>
<path d="M259.783 161.691C256.608 168.379 254.1 174.252 254.1 174.742C254.1 176.862 260.953 175.557 261.789 173.273C262.458 171.642 265.132 170.826 269.311 170.826C273.656 170.826 276.331 171.642 276.832 173.273C277.835 175.72 284.187 176.862 284.187 174.415C284.187 173.763 281.847 167.89 278.838 161.364C274.492 151.576 272.988 149.619 269.645 149.619C266.302 149.619 264.631 151.576 259.783 161.691ZM274.158 164.627C274.158 165.443 272.319 165.932 269.979 165.932C265.132 165.932 265.132 166.095 267.639 159.896L269.478 155.328L271.651 159.407C272.988 161.691 273.991 163.975 274.158 164.627Z" fill="black"/>
<path d="M299.23 162.67V175.721H308.59C313.604 175.721 319.287 174.905 321.126 174.089C324.469 172.295 325.471 165.28 322.63 163.485C321.46 162.833 321.46 161.528 322.63 159.407C324.803 155.492 324.803 155.165 321.627 152.229C319.956 150.434 315.944 149.619 309.091 149.619H299.23V162.67ZM316.78 157.776C316.78 159.407 314.774 160.386 311.431 160.712C306.751 161.201 305.915 160.712 305.915 157.776C305.915 154.839 306.751 154.35 311.431 154.839C314.774 155.165 316.78 156.144 316.78 157.776ZM315.777 165.769C319.287 167.89 316.446 170.826 310.763 170.826C306.25 170.826 304.244 168.053 307.085 165.443C308.59 163.812 312.936 164.138 315.777 165.769Z" fill="black"/>
<path d="M341.517 153.208C336.503 158.754 335.5 163.485 338.342 168.869C341.183 174.415 344.025 175.721 351.713 175.721C364.751 175.721 370.935 162.343 361.909 153.697C356.56 148.314 346.365 148.151 341.517 153.208ZM356.895 157.123C360.07 160.386 359.569 167.401 355.892 169.684C351.546 172.295 344.526 169.684 343.356 164.954C341.35 157.123 351.045 151.413 356.895 157.123Z" fill="black"/>
<path d="M381.131 162.67C381.131 173.11 381.632 175.721 383.638 175.721C384.975 175.721 386.145 174.252 386.145 172.621C386.145 167.401 391.494 166.911 395.672 171.479C397.678 173.763 401.021 175.721 403.027 175.721C406.537 175.721 406.537 175.557 403.863 171.642C401.355 167.89 401.355 167.237 403.695 164.954C405.033 163.648 406.203 160.712 406.203 158.591C406.203 152.066 402.024 149.619 390.992 149.619H381.131V162.67ZM398.681 158.591C398.681 161.038 397.344 162.017 393.834 162.343C388.318 162.996 385.309 160.712 386.814 156.96C388.318 152.882 398.681 154.35 398.681 158.591Z" fill="black"/>
<path d="M423.92 160.549C421.413 166.585 418.905 172.458 418.404 173.6C417.902 174.905 418.905 175.721 421.078 175.721C423.084 175.721 425.09 174.579 425.591 173.273C426.26 171.642 428.934 170.826 433.781 170.826C438.628 170.826 441.303 171.642 441.971 173.273C442.473 174.579 444.144 175.721 445.649 175.721C448.991 175.721 448.156 171.968 442.139 158.918C438.294 150.924 437.124 149.619 433.28 149.619C429.268 149.619 428.098 150.924 423.92 160.549ZM437.96 164.627C437.96 165.443 436.121 165.932 433.781 165.932C429.268 165.932 428.6 164.301 431.441 159.081C433.28 155.655 433.447 155.655 435.62 159.57C436.79 161.691 437.793 163.975 437.96 164.627Z" fill="black"/>
<path d="M456.346 151.903C456.346 153.371 458.352 154.513 461.026 154.839C465.372 155.329 465.539 155.818 466.04 165.443C466.542 174.415 467.043 175.721 469.718 175.721C472.726 175.721 473.061 174.579 473.061 165.932C473.061 156.634 473.228 156.144 477.239 156.144C480.248 156.144 481.418 155.329 481.418 152.882C481.418 149.945 480.248 149.619 468.882 149.619C459.188 149.619 456.346 150.108 456.346 151.903Z" fill="black"/>
<path d="M495.625 153.697C484.259 164.627 498.132 180.615 514.011 174.742C521.198 171.968 522.201 156.47 515.348 151.576C510.501 148.151 500.138 149.129 495.625 153.697ZM511.838 157.286C517.688 162.343 513.844 170.826 505.654 170.826C498.968 170.826 495.792 161.854 500.807 157.123C504.149 153.697 507.994 153.86 511.838 157.286Z" fill="black"/>
<path d="M534.904 162.67C534.904 174.579 535.239 175.721 538.247 175.721C540.42 175.721 541.59 174.579 541.59 172.458C541.59 170.174 542.76 169.195 545.434 169.195C547.44 169.195 550.114 170.663 551.285 172.458C552.455 174.252 554.962 175.721 556.8 175.721C560.31 175.721 560.31 175.557 557.469 171.479C554.795 167.401 554.795 166.911 557.302 165.606C560.812 163.648 560.812 155.492 557.302 152.229C555.63 150.434 551.619 149.619 544.766 149.619H534.904V162.67ZM552.956 158.918C553.457 162.18 552.789 162.67 547.607 162.67C542.259 162.67 541.59 162.18 541.59 158.428C541.59 154.676 542.092 154.35 547.106 154.839C551.117 155.165 552.622 156.144 552.956 158.918Z" fill="black"/>
<path d="M571.509 152.392C572.345 154.023 575.019 157.776 577.359 160.875C579.699 163.975 581.705 168.706 581.705 171.153C581.705 174.089 582.54 175.721 584.212 175.721C585.883 175.721 586.719 174.089 586.719 171.153C586.719 168.543 588.892 163.485 591.399 160.059C598.921 149.782 599.088 149.619 594.408 149.619C591.399 149.619 589.393 151.087 587.388 154.839L584.713 159.896L581.37 154.839C579.197 151.25 576.69 149.619 574.016 149.619C570.506 149.619 570.172 150.108 571.509 152.392Z" fill="black"/>
</svg>
